<svg xmlns="http://www.w3.org/2000/svg" viewBox="0 0 96 96" role="img" aria-labelledby="title desc">
  <title id="title">Allensworth OS mark</title>
  <desc id="desc">Reversed Allensworth A monogram with forest green botanical detail for dark backgrounds.</desc>
  <defs>
    <style>
      .mark-letter{font-family:'Source Serif 4',Georgia,'Times New Roman',serif;font-weight:600}
    </style>
  </defs>
  <text x="48" y="72" class="mark-letter" font-size="76" fill="#F2ECE1" text-anchor="middle">A</text>
  <path d="M32 69 C42 55 51 44 66 31" fill="none" stroke="#45543A" stroke-width="3.5" stroke-linecap="round"/>
  <path d="M44 55 C36 49 36 41 41 36 C49 41 50 49 44 55Z" fill="#45543A"/>
  <path d="M52 46 C55 38 62 34 70 35 C69 43 63 48 52 46Z" fill="#45543A"/>
  <path d="M37 63 C29 60 26 54 28 47 C36 48 41 54 37 63Z" fill="#45543A"/>
  <path d="M59 39 C62 32 68 28 76 29 C75 36 69 40 59 39Z" fill="#45543A" opacity=".88"/>
</svg>
